<?xml version="1.0" standalone="no"?>
<!DOCTYPE svg PUBLIC "-//W3C//DTD SVG 20010904//EN"
 "http://www.w3.org/TR/2001/REC-SVG-20010904/DTD/svg10.dtd">
<svg version="1.0" xmlns="http://www.w3.org/2000/svg"
 width="600.000000pt" height="600.000000pt" viewBox="0 0 600.000000 600.000000"
 preserveAspectRatio="xMidYMid meet">
<metadata>
Created by potrace 1.11, written by Peter Selinger 2001-2013
</metadata>
<g transform="translate(0.000000,600.000000) scale(0.100000,-0.100000)"
fill="#000000" stroke="none">
<path d="M1616 5548 c-12 -29 -74 -179 -136 -333 -63 -154 -116 -282 -118
-285 -2 -3 -135 -6 -295 -6 -161 -1 -300 -2 -309 -3 -14 -1 -18 -10 -18 -36 0
-34 13 -43 53 -36 5 1 6 -2 3 -7 -2 -4 4 -14 16 -21 11 -7 18 -9 15 -4 -3 4 1
14 9 21 8 7 14 9 14 3 0 -5 7 -11 14 -14 10 -4 13 -1 10 7 -3 8 3 12 18 11 13
-1 22 -8 21 -14 -4 -16 8 -13 24 7 13 16 14 15 9 -8 -3 -14 -3 -19 0 -12 3 6
10 10 15 6 5 -3 9 -2 8 3 -4 22 3 23 21 2 10 -13 19 -19 20 -12 0 7 10 18 23
24 18 9 20 9 10 -2 -19 -19 -16 -33 3 -14 15 15 18 15 41 -1 14 -9 23 -11 19
-6 -3 6 4 14 16 18 26 8 34 6 31 -7 -5 -15 9 -10 24 9 13 15 13 15 8 -8 -4
-17 -3 -21 3 -11 5 7 15 11 21 7 6 -4 9 -2 6 7 -4 10 6 13 45 11 60 -2 67 -7
53 -37 -6 -12 -21 -48 -33 -80 -12 -31 -28 -61 -34 -65 -6 -4 -175 -7 -376 -8
-201 -1 -375 -2 -388 -3 -21 -1 -23 -5 -20 -43 2 -34 7 -43 21 -42 9 1 17 -3
17 -8 0 -6 6 -6 14 1 11 9 16 9 22 0 5 -8 3 -9 -6 -4 -8 5 -11 4 -6 -3 8 -13
36 -5 36 10 0 6 9 0 20 -13 11 -13 20 -19 19 -14 -3 23 2 36 11 30 6 -4 8 -11
5 -16 -4 -5 -1 -9 4 -9 6 0 11 5 11 10 0 6 4 10 10 10 5 0 6 -8 3 -17 -5 -12
0 -10 16 6 16 16 26 19 35 12 9 -7 17 -7 26 2 12 10 12 9 2 -5 -10 -12 -10
-18 -1 -24 8 -4 9 -3 5 4 -8 13 -7 14 49 16 23 1 46 5 52 9 7 4 19 -3 29 -15
10 -15 14 -17 11 -6 -4 10 -1 20 5 24 6 4 9 3 6 -2 -3 -5 1 -16 10 -24 14 -13
15 -12 10 2 -4 10 -1 19 8 22 10 4 12 2 8 -6 -5 -8 -2 -9 9 -5 10 4 24 10 32
13 8 3 15 1 15 -6 0 -6 -4 -9 -9 -6 -5 3 -14 -1 -21 -9 -9 -10 -9 -15 -1 -15
6 0 11 5 11 12 0 6 3 8 7 5 3 -4 13 -1 21 6 13 10 15 9 9 -5 -4 -12 -2 -15 8
-11 8 3 12 10 8 17 -3 6 -3 8 2 4 4 -4 16 -3 26 3 12 6 19 6 19 0 0 -5 -6 -11
-12 -14 -7 -2 -10 -8 -6 -11 3 -4 16 2 28 14 16 16 25 19 34 11 7 -6 17 -7 21
-3 5 4 5 1 1 -5 -4 -7 -2 -13 3 -13 6 0 11 5 11 12 0 6 3 8 7 5 3 -4 12 -2 20
4 7 6 13 8 13 4 0 -4 -7 -13 -16 -20 -15 -10 -15 -12 -1 -12 9 0 19 7 21 14 3
8 10 11 16 8 6 -4 8 -10 5 -15 -6 -9 42 -6 52 3 5 6 73 -146 73 -163 0 -3
-130 -5 -290 -5 -159 0 -290 -2 -291 -5 0 -3 -2 -17 -4 -32 -4 -33 5 -40 60
-43 24 -1 47 -5 53 -9 6 -3 13 0 15 6 4 10 6 10 6 1 1 -7 6 -13 12 -13 5 0 8
3 5 8 -2 4 31 7 74 7 62 0 76 -3 72 -14 -3 -9 -1 -12 5 -8 6 4 14 1 17 -5 3
-7 4 -4 1 7 -4 19 0 20 71 18 41 0 79 -5 82 -9 4 -4 1 -4 -5 0 -7 4 -13 3 -13
-2 0 -5 20 -8 44 -8 24 1 42 4 39 9 -2 4 -8 5 -13 2 -5 -3 -11 -2 -13 2 -3 5
21 8 53 8 32 0 56 -4 53 -9 -3 -4 -1 -11 5 -15 6 -4 50 -101 97 -216 47 -116
106 -258 130 -317 25 -59 45 -112 45 -118 0 -12 47 -3 70 14 13 10 13 9 1 -6
-9 -12 -10 -18 -2 -18 6 0 14 7 17 15 4 8 10 15 15 15 11 0 8 -22 -4 -31 -5
-3 -2 -9 6 -12 10 -4 14 1 13 16 -1 13 4 21 12 19 8 -1 11 2 7 8 -3 6 -10 8
-15 5 -13 -8 -19 22 -7 35 7 7 8 10 2 8 -5 -3 -16 0 -23 8 -13 14 -4 20 23 14
5 -1 6 2 2 7 -5 4 -16 8 -25 8 -12 0 -17 8 -16 28 1 15 -1 25 -4 22 -8 -8 -33
47 -35 76 -1 15 -4 25 -6 23 -2 -2 -10 4 -17 14 -8 11 -9 22 -3 34 10 18 9 19
-13 22 -7 0 -14 10 -16 21 -2 11 -9 26 -15 33 -8 10 -7 16 4 23 12 7 12 9 -1
9 -9 0 -21 14 -27 30 -9 23 -8 28 0 23 7 -3 4 3 -5 14 -10 11 -18 27 -18 36 0
9 -5 17 -11 17 -6 0 -9 9 -6 20 3 11 2 18 -3 15 -4 -3 -10 2 -14 10 -3 8 0 15
6 15 7 0 4 6 -5 13 -15 11 -37 54 -43 86 -1 8 2 24 7 35 9 20 9 20 -4 3 -14
-17 -15 -16 -25 13 -6 16 -8 30 -4 30 4 0 3 4 -3 8 -17 12 -36 52 -30 62 4 6
2 10 -3 10 -9 0 -27 47 -24 63 1 4 -2 7 -7 7 -5 0 -11 9 -14 20 -3 11 -2 18 3
15 4 -3 10 1 13 9 4 10 -1 12 -16 9 -22 -5 -22 -5 -2 11 l20 16 -20 -6 c-16
-5 -17 -4 -5 5 8 6 11 11 6 11 -4 0 -1 11 8 25 9 14 14 25 10 25 -4 0 -1 7 6
15 7 8 9 15 5 15 -4 0 -2 7 5 15 10 12 16 13 27 4 11 -10 12 -9 7 5 -3 9 -10
16 -15 16 -5 0 -9 4 -9 9 0 10 39 27 53 23 4 -1 1 11 -8 28 -9 17 -11 30 -5
30 5 0 10 -5 10 -12 0 -6 3 -8 6 -5 4 4 2 13 -4 20 -7 8 -8 17 -4 21 4 4 7 11
7 14 1 4 6 17 13 30 7 12 10 22 7 22 -3 0 0 10 7 23 12 22 14 28 17 47 0 6 6
10 12 10 8 0 7 -6 -2 -17 -7 -10 -9 -15 -5 -11 5 4 15 3 23 -3 9 -9 13 -8 13
0 0 6 -5 11 -11 11 -5 0 -8 4 -4 9 3 5 1 12 -4 15 -10 7 8 66 21 66 4 0 5 9 3
20 -2 11 0 18 6 15 5 -4 9 3 9 14 0 12 9 30 20 41 22 22 27 35 8 24 -7 -5 -8
-3 -2 7 9 14 10 19 13 39 0 6 6 10 12 10 8 0 8 -5 -1 -15 -7 -9 -8 -15 -2 -15
9 0 19 17 23 38 0 4 5 15 10 24 5 9 5 19 1 22 -5 3 -9 -1 -10 -9 -1 -8 -3 -22
-4 -30 -1 -8 -5 -12 -10 -9 -4 3 -3 14 2 25 6 10 8 19 5 19 -3 0 2 11 11 24 8
14 16 29 17 33 2 21 22 63 30 63 4 0 2 -10 -4 -22 -6 -13 -8 -20 -4 -16 4 4
17 3 29 -3 21 -10 21 -10 1 6 -16 13 -17 17 -6 24 11 7 10 10 -3 18 -18 10
-13 43 6 43 6 0 5 -7 -2 -15 -11 -13 -10 -14 5 -9 14 6 16 4 10 -6 -5 -9 -4
-11 4 -6 9 6 9 13 -3 31 -8 12 -12 26 -8 30 7 6 8 10 11 36 0 5 5 8 10 5 5 -4
7 2 4 13 -3 10 -21 24 -41 30 -20 7 -43 15 -50 18 -8 3 -21 -15 -36 -49z
m-606 -708 c0 -5 -5 -10 -11 -10 -5 0 -7 5 -4 10 3 6 8 10 11 10 2 0 4 -4 4
-10z m100 4 c0 -8 -19 -13 -24 -6 -3 5 1 9 9 9 8 0 15 -2 15 -3z m340 -44 c0
-5 -4 -10 -10 -10 -5 0 -10 5 -10 10 0 6 5 10 10 10 6 0 10 -4 10 -10z m-216
-245 c3 3 2 0 -3 -6 -10 -12 -31 -4 -31 13 0 7 4 7 13 -1 8 -6 17 -9 21 -6z"/>
<path d="M4310 5581 c-25 -10 -44 -23 -43 -29 2 -6 45 -114 96 -239 52 -126
138 -336 192 -467 l98 -239 -86 -211 c-126 -310 -219 -538 -266 -649 l-40 -98
24 -11 c13 -6 22 -14 20 -18 -3 -4 1 -8 8 -7 44 1 68 -4 61 -15 -4 -7 -3 -8 5
-4 9 6 9 11 0 22 -14 17 -6 18 24 4 l22 -11 -22 17 c-20 14 -21 18 -8 47 21
49 28 71 26 80 -1 5 3 6 8 3 5 -4 12 -2 16 3 3 6 13 8 23 5 14 -5 14 -4 3 4
-8 6 -21 8 -30 5 -14 -4 -14 -3 -1 6 8 6 11 11 7 11 -4 0 -2 10 5 23 7 12 12
26 13 30 0 5 11 15 25 22 14 8 21 15 15 15 -5 0 -4 4 3 9 11 7 11 9 -2 14 -9
4 -15 3 -15 -1 3 -19 -2 -32 -12 -32 -8 0 -8 5 1 15 7 8 10 15 6 15 -4 0 0 10
9 23 8 13 13 26 10 29 -3 3 1 11 9 17 8 7 12 19 9 27 -3 7 2 16 10 20 9 3 13
12 10 20 -3 8 0 14 7 14 6 0 9 -4 6 -8 -2 -4 4 -9 15 -9 19 -2 19 -1 -1 15
-19 16 -19 19 -5 46 8 15 15 35 15 43 0 8 4 11 10 8 6 -4 2 -22 -11 -47 -11
-22 -16 -37 -11 -34 6 3 13 0 16 -6 3 -7 3 -2 0 11 -4 16 -2 21 5 17 7 -5 8
-1 4 11 -6 16 -5 17 13 3 15 -11 16 -11 7 0 -15 16 -17 34 -5 26 5 -3 9 1 9 9
0 8 -4 12 -8 10 -15 -10 -18 25 -3 40 8 8 12 19 9 25 -3 5 -1 10 5 10 6 0 8 5
4 12 -4 7 -3 8 5 4 6 -4 9 -16 6 -26 -3 -10 -2 -21 3 -24 10 -6 9 45 -2 62
-14 24 11 48 48 47 20 -1 39 -5 44 -10 4 -5 2 -5 -5 -1 -6 3 -14 3 -16 -2 -3
-4 16 -7 43 -7 26 0 46 3 43 8 -2 4 -8 5 -13 2 -5 -3 -11 -2 -14 3 -5 9 66 8
82 -2 6 -3 13 0 15 6 4 10 6 10 6 1 1 -7 6 -13 12 -13 5 0 8 3 6 8 -3 4 17 7
43 7 27 0 46 -3 44 -6 -7 -12 29 -20 40 -9 8 8 6 9 -6 5 -10 -4 -18 -3 -18 1
0 11 237 11 247 0 4 -4 -1 -4 -12 0 -21 8 -21 6 8 -16 10 -7 17 -9 16 -4 -4
21 2 35 11 29 6 -4 7 -12 3 -18 -3 -7 3 -3 15 7 26 22 30 35 5 15 -15 -12 -16
-12 -10 3 4 11 2 15 -7 12 -8 -3 -12 6 -12 28 l1 33 -275 2 c-151 2 -280 4
-287 5 -9 1 -9 6 0 22 6 12 10 27 9 34 -2 6 1 12 6 12 9 0 24 39 19 50 -1 3 6
16 16 30 l17 25 199 0 c110 0 197 -3 194 -7 -2 -5 -1 -8 4 -9 43 -5 61 -5 57
2 -2 4 -13 6 -24 4 -11 -2 -20 0 -20 4 0 4 74 7 164 7 90 -1 162 -4 159 -9 -2
-4 -8 -5 -13 -2 -5 3 -11 1 -15 -4 -3 -6 4 -8 17 -6 13 3 24 9 26 15 2 5 8 10
14 10 6 0 8 -6 5 -13 -3 -7 3 -13 13 -13 11 0 16 5 12 11 -7 10 -8 16 -11 73
l-1 32 -396 0 c-261 0 -393 3 -389 10 3 6 2 10 -3 10 -10 0 -27 48 -23 64 1 5
-3 12 -9 16 -6 4 -12 13 -13 21 -2 8 -7 21 -12 29 -22 35 -8 63 16 33 10 -11
10 -14 2 -9 -9 5 -11 2 -6 -10 4 -11 8 -13 11 -6 2 7 8 9 14 6 5 -4 4 4 -3 17
-12 23 -11 23 6 9 19 -16 78 -22 69 -8 -3 5 -11 5 -17 2 -7 -4 -8 -3 -4 2 14
15 31 11 49 -11 10 -11 17 -15 18 -8 0 7 10 18 23 24 18 9 20 9 10 -2 -19 -19
-16 -33 3 -14 15 15 18 15 41 -1 14 -9 23 -11 19 -6 -3 6 4 14 16 18 26 8 34
6 31 -7 -5 -15 9 -10 24 9 13 15 13 15 8 -8 -4 -17 -3 -21 3 -11 5 7 15 11 21
7 6 -4 9 -2 6 6 -4 10 6 13 35 13 26 0 40 -4 40 -12 0 -7 5 -13 11 -13 5 0 7
5 4 10 -10 16 6 12 29 -7 12 -10 15 -11 9 -3 -21 24 -14 34 9 14 17 -15 20
-16 16 -3 -4 11 0 15 15 14 12 -1 29 3 37 9 13 9 13 9 2 -5 -10 -14 -10 -18 2
-22 11 -4 13 -1 9 10 -5 12 -2 14 8 9 8 -4 5 1 -6 11 -11 10 -20 29 -20 43 l0
25 -300 0 c-165 0 -305 4 -311 8 -7 4 -14 15 -17 26 -3 15 -1 18 12 15 9 -3 5
2 -9 10 -14 8 -21 15 -16 16 5 0 1 9 -8 19 -10 11 -17 28 -16 38 4 34 0 43
-17 43 -14 0 -15 2 -5 9 10 6 10 10 -3 21 -8 7 -15 21 -15 31 0 11 -5 19 -11
19 -8 0 -7 6 2 17 10 12 10 14 1 9 -7 -4 -14 -2 -16 6 -2 7 -7 22 -12 33 -4
11 -6 23 -6 28 1 4 -3 7 -9 7 -8 0 -7 6 2 18 7 9 9 14 5 10 -5 -5 -16 1 -23
12 -12 17 -12 24 -2 36 9 12 9 13 -2 9 -18 -6 -51 68 -38 84 5 6 6 9 3 7 -3
-3 -12 1 -19 7 -10 9 -10 15 -1 26 8 11 8 13 0 8 -14 -8 -27 20 -17 35 4 7 1
8 -7 3 -10 -6 -12 -4 -7 9 4 10 3 15 -3 11 -6 -3 -10 -2 -10 2 0 5 -6 16 -12
25 -12 15 -17 15 -58 -1z m460 -741 c0 -5 -4 -10 -10 -10 -5 0 -10 5 -10 10 0
6 5 10 10 10 6 0 10 -4 10 -10z m80 0 c0 -5 -5 -10 -11 -10 -5 0 -7 5 -4 10 3
6 8 10 11 10 2 0 4 -4 4 -10z m100 4 c0 -8 -19 -13 -24 -6 -3 5 1 9 9 9 8 0
15 -2 15 -3z"/>
<path d="M1731 5497 c-13 -21 -12 -21 5 -5 10 10 16 20 13 22 -3 3 -11 -5 -18
-17z"/>
<path d="M1669 5363 c-1 -5 -1 -12 0 -17 1 -4 -3 -14 -9 -21 -8 -9 -6 -14 4
-18 11 -4 13 -1 9 10 -5 11 -3 14 6 8 10 -6 11 -3 2 12 -6 11 -7 23 -4 27 3 3
3 6 0 6 -4 0 -8 -3 -8 -7z"/>
<path d="M1690 5360 c0 -5 5 -10 11 -10 5 0 7 5 4 10 -3 6 -8 10 -11 10 -2 0
-4 -4 -4 -10z"/>
<path d="M1616 5198 c3 -5 10 -6 15 -3 13 9 11 12 -6 12 -8 0 -12 -4 -9 -9z"/>
<path d="M1595 5160 c3 -5 8 -10 11 -10 2 0 4 5 4 10 0 6 -5 10 -11 10 -5 0
-7 -4 -4 -10z"/>
<path d="M1583 5145 c4 -5 0 -19 -8 -32 -9 -13 -12 -23 -7 -23 5 0 14 11 20
25 9 18 8 26 -1 31 -7 4 -9 3 -4 -1z"/>
<path d="M1545 5050 c-13 -26 -13 -29 0 -24 8 3 14 9 13 12 -2 21 3 32 14 26
7 -4 8 -3 4 4 -10 17 -14 15 -31 -18z"/>
<path d="M2140 5052 c-6 -2 -10 -39 -10 -83 0 -78 0 -79 25 -79 14 0 25 -4 25
-9 0 -15 -159 -504 -173 -531 -11 -21 -19 -25 -55 -23 l-42 1 0 -84 c0 -73 2
-84 18 -85 19 -1 341 0 385 0 l27 1 0 84 0 84 -40 -2 c-57 -4 -65 4 -50 48
l12 37 140 -3 140 -3 13 -37 c9 -28 10 -38 1 -39 -6 -1 -33 -2 -61 -3 l-50 -1
-3 -82 -3 -83 33 -1 c18 0 139 -1 268 -1 l235 -1 0 84 0 84 -44 0 -45 0 -118
359 c-65 198 -120 361 -123 364 -5 6 -489 9 -505 4z m306 -350 c22 -70 37
-129 33 -132 -9 -6 -158 -5 -163 1 -4 6 78 259 84 259 3 0 23 -57 46 -128z"/>
<path d="M3239 5018 c-2 -132 -4 -123 24 -126 15 -2 27 -6 27 -9 0 -3 -40
-130 -90 -282 l-90 -277 -45 1 -45 1 0 -83 0 -83 28 -1 c36 0 339 0 375 0 l27
1 0 85 0 85 -27 -1 c-16 -1 -40 -1 -54 0 -26 1 -26 2 -15 36 7 19 15 37 18 40
5 5 159 8 259 5 9 0 23 -17 32 -40 17 -45 23 -42 -70 -43 l-43 -1 0 -83 c0
-46 3 -83 8 -84 4 0 125 -1 270 -2 l262 -2 0 87 0 86 -40 -2 c-21 -2 -43 0
-48 3 -5 3 -62 166 -126 361 -65 195 -119 356 -122 359 -2 2 -119 5 -259 5
l-255 1 -1 -37z m319 -325 c45 -139 51 -125 -53 -125 -30 0 -61 0 -69 1 -10 1
-3 33 28 131 22 71 44 126 47 122 4 -4 25 -62 47 -129z"/>
<path d="M1507 4964 c-3 -3 -3 -13 0 -22 5 -11 3 -13 -7 -7 -9 6 -11 4 -6 -4
5 -7 0 -21 -10 -32 -12 -14 -14 -18 -3 -14 20 8 52 65 36 65 -7 0 -6 4 3 10 8
5 10 10 4 10 -6 0 -13 -3 -17 -6z"/>
<path d="M1474 4864 c-18 -14 -18 -14 6 -3 31 14 36 19 24 19 -6 0 -19 -7 -30
-16z"/>
<path d="M895 4829 c-4 -6 -5 -12 -2 -15 2 -3 7 2 10 11 7 17 1 20 -8 4z"/>
<path d="M1135 4829 c-4 -6 -5 -12 -2 -15 2 -3 7 2 10 11 7 17 1 20 -8 4z"/>
<path d="M1257 4833 c-4 -3 -7 -11 -7 -17 0 -6 5 -5 12 2 6 6 9 14 7 17 -3 3
-9 2 -12 -2z"/>
<path d="M1287 4826 c-4 -10 -1 -13 8 -9 8 3 12 9 9 14 -7 12 -11 11 -17 -5z"/>
<path d="M4975 4829 c-4 -6 -5 -12 -2 -15 2 -3 7 2 10 11 7 17 1 20 -8 4z"/>
<path d="M5097 4833 c-4 -3 -7 -11 -7 -17 0 -6 5 -5 12 2 6 6 9 14 7 17 -3 3
-9 2 -12 -2z"/>
<path d="M5225 4829 c-4 -6 -5 -12 -2 -15 2 -3 7 2 10 11 7 17 1 20 -8 4z"/>
<path d="M1434 4762 c4 -3 14 -7 22 -8 9 -1 13 0 10 4 -4 3 -14 7 -22 8 -9 1
-13 0 -10 -4z"/>
<path d="M1405 4721 c-3 -6 -2 -11 3 -11 5 0 9 -7 9 -15 0 -10 -6 -14 -16 -10
-8 3 -12 3 -8 -1 4 -4 2 -13 -4 -21 -6 -7 -8 -13 -3 -13 5 0 2 -5 -6 -11 -13
-9 -13 -10 0 -6 8 2 14 9 13 15 -2 6 6 16 17 22 12 6 17 18 15 31 -5 27 -11
33 -20 20z"/>
<path d="M4753 4711 c0 -11 5 -18 9 -15 4 3 5 11 1 19 -7 21 -12 19 -10 -4z"/>
<path d="M5550 4600 c0 -5 5 -10 11 -10 5 0 7 5 4 10 -3 6 -8 10 -11 10 -2 0
-4 -4 -4 -10z"/>
<path d="M5555 4571 c-3 -5 -2 -12 3 -15 5 -3 9 1 9 9 0 17 -3 19 -12 6z"/>
<path d="M677 4553 c-11 -11 -8 -20 7 -20 8 0 12 6 9 14 -6 15 -7 15 -16 6z"/>
<path d="M820 4545 c-7 -9 -8 -15 -2 -15 5 0 12 7 16 15 3 8 4 15 2 15 -2 0
-9 -7 -16 -15z"/>
<path d="M1077 4553 c-11 -11 -8 -20 7 -20 8 0 12 6 9 14 -6 15 -7 15 -16 6z"/>
<path d="M4810 4541 c0 -6 4 -13 10 -16 6 -3 7 1 4 9 -7 18 -14 21 -14 7z"/>
<path d="M4900 4545 c0 -2 6 -8 13 -14 10 -8 14 -7 14 2 0 8 -6 14 -14 14 -7
0 -13 -1 -13 -2z"/>
<path d="M4947 4543 c-3 -5 6 -9 20 -10 19 -1 22 1 12 8 -17 11 -26 11 -32 2z"/>
<path d="M5230 4541 c0 -9 38 -12 44 -3 2 4 -7 8 -20 8 -13 1 -24 -1 -24 -5z"/>
<path d="M5290 4541 c0 -6 4 -13 10 -16 6 -3 7 1 4 9 -7 18 -14 21 -14 7z"/>
<path d="M5380 4545 c0 -2 6 -8 13 -14 10 -8 14 -7 14 2 0 8 -6 14 -14 14 -7
0 -13 -1 -13 -2z"/>
<path d="M5425 4540 c-3 -6 1 -7 9 -4 18 7 21 14 7 14 -6 0 -13 -4 -16 -10z"/>
<path d="M4745 4521 c-3 -5 -1 -12 5 -16 6 -4 5 -12 -5 -21 -18 -18 -19 -30
-3 -40 6 -4 8 -3 5 3 -4 6 0 19 7 29 11 15 12 22 3 33 -10 11 -8 13 13 7 19
-6 21 -5 10 3 -19 13 -27 14 -35 2z"/>
<path d="M4713 4433 c4 -3 2 -12 -5 -20 -6 -7 -8 -16 -4 -20 3 -3 6 0 6 8 0
12 2 12 9 0 6 -9 9 -5 9 13 0 14 -5 26 -11 26 -6 0 -7 -3 -4 -7z"/>
<path d="M776 4282 c-3 -5 1 -9 9 -9 8 0 12 4 9 9 -3 4 -7 8 -9 8 -2 0 -6 -4
-9 -8z"/>
<path d="M830 4275 c0 -8 4 -15 10 -15 5 0 7 7 4 15 -4 8 -8 15 -10 15 -2 0
-4 -7 -4 -15z"/>
<path d="M925 4279 c-3 -4 2 -6 10 -5 21 3 28 13 10 13 -9 0 -18 -4 -20 -8z"/>
<path d="M4647 4277 c-3 -9 -1 -20 5 -23 7 -4 14 -2 16 5 3 9 7 9 20 -1 14
-12 14 -11 1 9 -8 14 -16 18 -20 11 -4 -7 -8 -6 -11 3 -3 9 -6 8 -11 -4z"/>
<path d="M4830 4275 c0 -8 4 -15 10 -15 5 0 7 7 4 15 -4 8 -8 15 -10 15 -2 0
-4 -7 -4 -15z"/>
<path d="M4925 4279 c-3 -4 2 -6 10 -5 21 3 28 13 10 13 -9 0 -18 -4 -20 -8z"/>
<path d="M5110 4278 c0 -4 4 -8 9 -8 6 0 12 4 15 8 3 5 -1 9 -9 9 -8 0 -15 -4
-15 -9z"/>
<path d="M4606 4172 c-3 -5 1 -9 9 -9 8 0 15 4 15 9 0 4 -4 8 -9 8 -6 0 -12
-4 -15 -8z"/>
<path d="M4540 4010 c-8 -5 -11 -12 -7 -16 4 -4 0 -16 -10 -26 -9 -11 -11 -18
-5 -18 7 0 12 5 12 11 0 5 5 7 12 3 6 -4 8 -3 4 4 -3 6 2 15 11 21 14 8 15 10
3 11 -13 0 -13 1 0 10 8 5 11 10 5 10 -5 0 -17 -4 -25 -10z"/>
<path d="M4535 3940 c-4 -6 -11 -8 -16 -5 -5 3 -6 -1 -3 -10 4 -9 7 -15 8 -13
1 2 8 11 15 21 7 9 11 17 8 17 -3 0 -9 -5 -12 -10z"/>
<path d="M4474 3842 c4 -3 14 -7 22 -8 9 -1 13 0 10 4 -4 3 -14 7 -22 8 -9 1
-13 0 -10 -4z"/>
<path d="M4467 3813 c-11 -11 -8 -21 9 -27 14 -5 15 -4 5 8 -9 11 -9 15 1 19
7 3 8 6 2 6 -6 1 -14 -2 -17 -6z"/>
<path d="M4438 3739 c-10 -5 -18 -14 -18 -19 0 -6 8 -10 18 -9 11 0 12 2 4 6
-10 4 -9 8 5 19 21 16 16 18 -9 3z"/>
<path d="M4416 3691 c-4 -5 -2 -12 3 -15 5 -4 12 -2 15 3 4 5 2 12 -3 15 -5 4
-12 2 -15 -3z"/>
<path d="M4405 3660 c3 -6 1 -10 -6 -10 -7 0 -10 -3 -6 -6 3 -3 13 -2 22 4 16
8 16 9 1 15 -10 4 -15 3 -11 -3z"/>
<path d="M1665 3600 c3 -5 11 -10 16 -10 6 0 7 5 4 10 -3 6 -11 10 -16 10 -6
0 -7 -4 -4 -10z"/>
<path d="M2737 3073 c-2 -5 -3 -42 -3 -83 l1 -75 30 -5 30 -5 1 -88 c1 -78 0
-87 -15 -81 -121 50 -227 45 -324 -16 -194 -123 -188 -439 12 -568 54 -36 59
-37 151 -37 79 0 102 4 136 22 42 22 42 22 55 2 13 -19 25 -20 162 -20 82 0
152 3 156 5 4 3 7 40 6 83 l-1 78 -32 -1 -32 -1 0 398 0 399 -164 0 c-91 0
-167 -3 -169 -7z m7 -488 c65 -43 67 -235 3 -280 -26 -18 -66 -19 -88 -2 -69
52 -71 233 -3 286 28 22 50 21 88 -4z"/>
<path d="M559 3008 c0 -5 -1 -28 -1 -53 0 -105 0 -105 28 -105 22 0 24 -3 19
-22 -46 -160 -171 -526 -181 -534 -8 -7 -30 -10 -49 -8 l-35 3 0 -85 0 -84 68
-1 c64 0 292 0 340 1 22 0 23 2 20 83 l-3 82 -40 2 c-22 1 -45 2 -52 2 -9 1
-7 13 6 43 l17 42 125 -1 c68 -1 129 -2 136 -2 10 -1 33 -51 33 -75 0 -7 -22
-11 -60 -10 -37 1 -60 -3 -61 -10 -2 -27 3 -151 6 -154 3 -3 331 -5 488 -3
l47 1 0 83 0 84 -41 -1 c-22 -1 -44 1 -49 4 -4 3 -41 104 -80 225 -40 121 -93
283 -119 360 l-46 140 -258 0 c-141 0 -257 -3 -258 -7z m319 -355 l40 -123
-29 -1 c-103 -2 -144 0 -143 8 9 45 79 252 85 246 4 -5 25 -63 47 -130z"/>
<path d="M3615 2783 c-41 -9 -82 -37 -105 -70 l-24 -35 -20 41 -20 41 -128 0
-128 0 0 -86 0 -85 28 3 27 3 0 -155 0 -155 -27 2 -28 2 0 -84 0 -85 40 0 c22
-1 78 -1 125 -1 47 0 114 0 150 1 l65 0 0 84 c0 73 -2 83 -17 83 -51 0 -50 -2
-48 91 2 92 19 143 52 157 10 4 45 13 78 19 l60 12 0 110 0 109 -30 2 c-17 0
-39 -1 -50 -4z"/>
<path d="M1863 2751 c-28 -17 -58 -40 -67 -52 -15 -22 -15 -21 -32 20 l-16 41
-144 0 -144 0 0 -86 0 -86 29 4 29 4 0 -153 c0 -109 -3 -153 -11 -154 -7 -1
-20 -2 -29 -2 -16 0 -18 -10 -18 -83 l0 -84 43 -1 c57 0 282 0 333 0 l41 1 -1
83 -1 82 -48 0 -47 0 0 115 c0 97 3 120 20 148 11 17 23 32 27 33 5 0 20 3 34
5 16 3 35 -3 50 -15 24 -19 24 -21 27 -235 l3 -216 42 0 c104 -2 186 -2 240
-1 l57 1 0 84 0 84 -30 -2 c-21 -2 -30 2 -30 13 -1 9 -2 82 -4 163 -3 135 -5
152 -30 201 -39 80 -86 108 -190 114 -76 4 -84 2 -133 -26z"/>
<path d="M3995 2769 c-136 -30 -229 -114 -260 -237 -61 -244 112 -447 372
-436 86 3 195 32 252 67 30 18 56 37 57 42 2 6 -21 36 -50 68 l-52 58 -47 -26
c-61 -35 -169 -45 -215 -21 -41 21 -79 78 -57 86 8 3 105 5 215 5 226 -1 207
-8 214 79 11 144 -72 260 -216 305 -48 16 -162 20 -213 10z m178 -200 c9 -12
17 -32 17 -45 0 -24 -1 -24 -100 -24 -110 0 -114 3 -80 57 33 55 122 61 163
12z"/>
<path d="M4449 2728 c-4 -131 -3 -138 29 -138 27 0 29 -3 100 -224 40 -123 72
-228 72 -234 0 -12 114 -19 218 -14 l68 3 45 135 c24 74 47 134 51 134 4 0 26
-60 49 -134 l42 -135 81 -3 c45 -2 110 -1 145 2 l64 5 76 232 c75 228 76 233
104 233 15 0 27 6 28 13 1 19 1 130 0 145 -1 9 -41 12 -163 12 l-163 0 -1 -86
0 -86 28 4 c22 4 27 1 23 -11 -18 -59 -45 -179 -45 -202 0 -27 -16 -51 -17
-26 -1 31 -45 212 -72 301 -17 54 -31 100 -31 103 0 2 -57 2 -126 1 l-126 -3
-19 -60 c-25 -78 -59 -218 -65 -264 -13 -101 -19 -109 -28 -37 -3 29 -17 86
-30 125 l-24 71 24 0 c23 0 24 2 24 85 l0 85 -180 0 -180 0 -1 -32z"/>
<path d="M4025 1469 c-69 -19 -114 -104 -89 -166 43 -104 206 -116 264 -20 24
39 25 68 4 113 -28 59 -109 91 -179 73z"/>
<path d="M4829 1477 c-1 -1 -3 -39 -4 -84 l-3 -83 29 0 29 0 -2 -312 -3 -313
-23 1 c-26 2 -31 -13 -30 -103 0 -54 3 -63 19 -64 25 -1 386 -1 397 0 13 1 11
161 -2 162 -6 1 -27 2 -46 3 l-35 1 -3 100 c-4 122 8 169 48 190 36 19 34 19
70 0 39 -20 45 -57 44 -276 -1 -156 1 -179 15 -180 20 -1 302 -1 319 0 8 1 12
25 12 85 l0 84 -30 -3 c-17 -1 -30 2 -31 9 0 6 -2 76 -4 156 -1 80 -5 156 -8
169 -13 49 -45 97 -86 126 -38 27 -49 29 -124 30 -88 0 -146 -20 -201 -72
l-26 -24 0 200 0 200 -160 -1 c-88 0 -161 0 -161 -1z"/>
<path d="M583 1412 c-13 -2 -23 -11 -24 -20 -1 -19 -1 -123 0 -134 1 -5 12 -8
26 -8 14 0 25 -3 25 -6 0 -4 -38 -125 -85 -269 -47 -144 -85 -267 -85 -273 0
-7 -11 -13 -25 -13 -77 -4 -70 4 -73 -86 -3 -80 -2 -83 20 -84 29 -1 390 -1
401 0 4 1 7 38 5 84 l-3 82 -51 0 -51 0 14 42 15 43 137 0 138 0 16 -40 c8
-22 12 -40 9 -41 -4 0 -31 -2 -59 -3 -29 -1 -56 -5 -59 -9 -7 -7 -6 -149 2
-156 3 -3 457 -5 517 -2 16 1 17 10 15 84 l-3 82 -45 0 -45 0 -107 325 c-58
179 -112 342 -120 364 l-13 38 -235 2 c-129 0 -245 0 -257 -2z m286 -337 c23
-68 41 -130 41 -138 0 -12 -29 -14 -151 -8 -14 1 -11 19 22 122 22 67 39 128
39 135 0 32 11 7 49 -111z"/>
<path d="M4510 1312 l-115 -35 -3 -55 c-1 -31 -4 -57 -5 -59 -2 -1 -17 -3 -35
-5 l-32 -2 0 -83 0 -83 35 0 35 0 1 -77 c1 -275 14 -344 68 -382 50 -35 163
-45 270 -23 l36 8 3 83 c3 75 1 83 -14 77 -42 -16 -82 -16 -98 -1 -13 14 -16
42 -16 166 l0 149 65 0 65 0 0 86 0 86 -37 -2 c-21 -1 -50 -2 -65 -1 l-28 1 0
95 c0 52 -3 94 -7 94 -5 -1 -60 -17 -123 -37z"/>
<path d="M1640 1165 c-121 -25 -183 -86 -183 -180 0 -104 62 -166 213 -211
145 -44 155 -48 158 -72 3 -16 -4 -25 -25 -33 -55 -21 -173 25 -173 68 0 10
-22 13 -90 13 l-90 0 0 -115 c0 -85 3 -115 13 -116 14 -1 126 -1 145 0 6 1 12
11 12 24 0 12 4 29 10 37 8 12 10 12 15 -3 4 -9 32 -29 63 -44 47 -23 70 -28
132 -27 151 0 253 84 244 200 -7 97 -60 141 -238 200 -104 34 -146 56 -146 76
0 21 40 47 67 42 55 -9 102 -36 117 -68 14 -29 17 -31 68 -29 29 0 68 2 86 2
l32 1 0 114 0 114 -85 0 -85 1 0 -35 c0 -37 -10 -43 -31 -18 -40 48 -148 76
-229 59z"/>
<path d="M2365 1157 c-152 -51 -219 -154 -216 -334 2 -168 119 -299 281 -316
49 -5 129 11 168 33 l32 19 0 -84 0 -85 -45 0 -46 0 3 -82 3 -83 213 -1 212
-2 0 88 0 87 -30 -3 c-16 -2 -31 0 -32 4 0 4 -2 139 -3 300 l-1 292 33 0 33 0
0 84 0 84 -160 1 c-88 0 -160 -3 -160 -7 0 -4 -4 -13 -9 -20 -6 -10 -16 -8
-46 9 -46 28 -169 36 -230 16z m220 -183 c80 -87 45 -284 -50 -284 -58 0 -96
63 -96 161 -1 58 27 132 53 142 33 14 70 6 93 -19z"/>
<path d="M3029 1152 c-1 -4 -3 -42 -3 -84 l-2 -78 28 0 28 0 1 -122 c0 -68 3
-136 5 -153 21 -135 91 -202 224 -212 85 -6 142 10 191 54 22 20 41 34 43 32
2 -2 11 -19 20 -36 9 -18 22 -33 29 -34 89 -6 237 -2 240 6 1 6 2 44 2 85 -1
67 -3 75 -21 76 -10 1 -25 2 -31 3 -10 1 -13 55 -13 235 l0 235 -175 0 -175 0
0 -85 0 -84 46 0 46 0 -4 -124 c-3 -116 -5 -126 -27 -150 -32 -34 -84 -36
-106 -3 -21 33 -23 54 -24 258 l-1 187 -160 0 c-88 0 -161 -3 -161 -6z"/>
<path d="M3890 1074 l0 -84 28 0 27 0 -1 -147 c-1 -82 -2 -151 -3 -156 0 -4
-12 -5 -26 -3 l-25 5 0 -85 c0 -60 4 -84 13 -85 15 -1 326 -1 347 0 13 1 16
16 15 84 l0 82 -32 0 -33 -1 0 237 0 238 -155 -1 -155 0 0 -84z"/>
</g>
</svg>
